<?xml version="1.0" standalone="no"?><!DOCTYPE svg PUBLIC "-//W3C//DTD SVG 1.1//EN" "http://www.w3.org/Graphics/SVG/1.1/DTD/svg11.dtd"><svg t="1705556478806" class="icon" viewBox="0 0 1024 1024" version="1.1" xmlns="http://www.w3.org/2000/svg" p-id="10202" xmlns:xlink="http://www.w3.org/1999/xlink" width="128" height="128"><path d="M789.333333 213.333333h-682.666666C46.933333 213.333333 0 260.266667 0 320v384C0 763.733333 46.933333 810.666667 106.666667 810.666667h682.666666c59.733333 0 106.666667-46.933333 106.666667-106.666667v-384C896 260.266667 849.066667 213.333333 789.333333 213.333333z m21.333334 490.666667c0 12.8-8.533333 21.333333-21.333334 21.333333h-682.666666c-12.8 0-21.333333-8.533333-21.333334-21.333333v-384c0-12.8 8.533333-21.333333 21.333334-21.333333h682.666666c12.8 0 21.333333 8.533333 21.333334 21.333333v384z" p-id="10203" fill="#00cc33"></path><path d="M204.8 384c-25.6 0-42.666667 17.066667-42.666667 42.666667v170.666666c0 25.6 17.066667 42.666667 42.666667 42.666667s42.666667-17.066667 42.666667-42.666667v-170.666666c0-25.6-17.066667-42.666667-42.666667-42.666667zM366.933333 384c-25.6 0-42.666667 17.066667-42.666666 42.666667v170.666666c0 25.6 17.066667 42.666667 42.666666 42.666667s42.666667-17.066667 42.666667-42.666667v-170.666666c0-25.6-17.066667-42.666667-42.666667-42.666667zM529.066667 384c-25.6 0-42.666667 17.066667-42.666667 42.666667v170.666666c0 25.6 17.066667 42.666667 42.666667 42.666667s42.666667-17.066667 42.666666-42.666667v-170.666666c0-25.6-17.066667-42.666667-42.666666-42.666667zM981.333333 384h-42.666666v256h42.666666c25.6 0 42.666667-17.066667 42.666667-42.666667v-170.666666c0-25.6-17.066667-42.666667-42.666667-42.666667z" p-id="10204" fill="#00cc33"></path></svg>