<?xml version="1.0" standalone="no"?><!DOCTYPE svg PUBLIC "-//W3C//DTD SVG 1.1//EN" "http://www.w3.org/Graphics/SVG/1.1/DTD/svg11.dtd"><svg t="1705502009766" class="icon" viewBox="0 0 1024 1024" version="1.1" xmlns="http://www.w3.org/2000/svg" p-id="18586" xmlns:xlink="http://www.w3.org/1999/xlink" width="128" height="128"><path d="M268.945067 809.301333l27.029333-33.015466 2.679467 2.171733 4.539733 3.584 1.4464 1.1008a340.215467 340.215467 0 0 0 105.911467 54.8608l4.885333 1.480533 4.4672 1.28c3.5072 0.981333 7.0272 1.9072 10.56 2.773334l-10.154667 41.4464a382.7328 382.7328 0 0 1-151.364266-75.682134z" fill="#1296db" opacity=".02" p-id="18587"></path><path d="M205.943467 663.296l2.2272 4.4032a342.442667 342.442667 0 0 0 71.3344 94.208l1.024 0.942933c1.083733 1.0112 2.184533 2.013867 3.285333 3.008l2.9184 2.594134 3.4304 2.9696-27.754667 32.4096a385.1776 385.1776 0 0 1-101.2864-135.5776l38.971734-17.3824c1.864533 4.181333 3.8144 8.32 5.8496 12.4288z" fill="#1296db" opacity=".04" p-id="18588"></path><path d="M128.426667 493.738667l42.624 1.9968-0.123734 2.760533-0.072533 2.090667-0.136533 5.4784-0.021334 1.339733a400.034133 400.034133 0 0 0 0.008534 9.8304L170.666667 512c0 2.0864 0.017067 4.164267 0.055466 6.242133 0.768 43.52 9.621333 85.768533 26.350934 125.653334l-39.3472 16.503466C138.577067 614.7456 128 564.608 128 512c0-6.122667 0.145067-12.2112 0.426667-18.261333z" fill="#1296db" opacity=".06" p-id="18589"></path><path d="M896 512c0 22.314667-1.902933 44.181333-5.5552 65.450667l-42.048-7.223467c1.344-7.8336 2.4192-15.748267 3.2128-23.709867l0.375467-3.9808 0.247466-2.922666c0.1792-2.261333 0.341333-4.522667 0.477867-6.788267l0.2304-4.3264 0.213333-5.265067 0.072534-2.688 0.068266-3.362133L853.333333 512c0-2.2272-0.021333-4.450133-0.064-6.664533l-0.110933-4.343467-0.1152-3.131733-0.162133-3.575467-0.324267-5.4656-0.149333-2.116267-0.226134-2.948266-0.192-2.2528-0.32-3.4048-0.618666-5.802667-0.251734-2.0992-0.443733-3.490133-0.285867-2.120534-0.448-3.089066a338.410667 338.410667 0 0 0-8.836266-41.565867l41.088-11.485867A384.3328 384.3328 0 0 1 896 512z" fill="#1296db" p-id="18590"></path><path d="M177.5616 323.1616l37.137067 21.013333c-22.929067 40.512-37.034667 84.343467-42.013867 130.461867l-0.384 3.741867-0.238933 2.530133-0.2816 3.328-0.290134 3.9168-42.5728-2.935467A381.6832 381.6832 0 0 1 177.5616 323.157333z" fill="#1296db" opacity=".1" p-id="18591"></path><path d="M879.488 400.251733l-40.823467 12.4032a332.117333 332.117333 0 0 0-4.497066-13.7216l-1.864534-5.162666-0.797866-2.129067-1.5104-3.938133-0.648534-1.621334a340.808533 340.808533 0 0 0-53.521066-90.6752l-2.2528-2.709333-2.624-3.093333-3.584-4.100267a333.038933 333.038933 0 0 0-3.1744-3.528533l31.509333-28.765867a383.573333 383.573333 0 0 1 82.696533 143.517867l1.092267 3.524266z" fill="#1296db" opacity=".8" p-id="18592"></path><path d="M298.235733 192.951467l23.7824 35.426133-3.575466 2.432-2.935467 2.048-1.3312 0.9472A343.1168 343.1168 0 0 0 229.845333 319.8592l-0.8704 1.2928c-0.674133 0.989867-1.339733 1.984-1.9968 2.9824l-2.496 3.831467a328.789333 328.789333 0 0 0-5.986133 9.672533l-36.6592-21.832533A385.992533 385.992533 0 0 1 298.24 192.951467z" fill="#1296db" opacity=".2" p-id="18593"></path><path d="M789.879467 246.971733l-30.865067 29.457067-2.619733-2.7136-3.665067-3.6992-1.9712-1.941333a342.101333 342.101333 0 0 0-88.452267-62.6176l-0.477866-0.226134c-1.480533-0.733867-2.973867-1.450667-4.471467-2.154666l-3.5328-1.642667a333.632 333.632 0 0 0-19.997867-8.405333l15.232-39.8464a384.443733 384.443733 0 0 1 138.3168 91.191466l2.504534 2.602667z" fill="#1296db" opacity=".6" p-id="18594"></path><path d="M464.580267 130.901333l5.2224 42.3424c-50.734933 6.2464-98.3168 23.3984-141.44 50.973867l-22.984534-35.946667a381.653333 381.653333 0 0 1 159.202134-57.3696z" fill="#1296db" opacity=".3" p-id="18595"></path><path d="M512 128c45.277867 0 88.725333 7.837867 129.058133 22.229333l-14.336 40.183467a338.9312 338.9312 0 0 0-76.552533-17.642667l-5.0048-0.512a324.599467 324.599467 0 0 0-7.125333-0.6144l-3.656534-0.256-2.461866-0.1536-3.383467-0.170666-2.5472-0.1152-3.2512-0.1152-2.146133-0.059734-3.6864-0.072533a341.5552 341.5552 0 0 0-10.103467 0.004267L512 170.666667c-2.628267 0-5.248 0.029867-7.863467 0.085333l-4.155733 0.123733-3.4432 0.136534-4.4288 0.226133-3.652267 0.226133-4.168533 0.311467-4.859733 0.4224-2.103467 0.2048-4.270933-42.453333A388.535467 388.535467 0 0 1 512 128z" fill="#1296db" opacity=".4" p-id="18596"></path></svg>