<?xml version="1.0" encoding="utf-8"?>
<!-- Generator: Adobe Illustrator 21.0.0, SVG Export Plug-In . SVG Version: 6.00 Build 0)  -->
<svg version="1.1" id="图层_1" xmlns="http://www.w3.org/2000/svg" xmlns:xlink="http://www.w3.org/1999/xlink" x="0px" y="0px"
	 viewBox="0 0 128 128" style="enable-background:new 0 0 128 128;" xml:space="preserve">
<style type="text/css">
	.st0{opacity:2.000000e-02;fill:#1296DB;enable-background:new    ;}
	.st1{opacity:4.000000e-02;fill:#1296DB;enable-background:new    ;}
	.st2{opacity:6.000000e-02;fill:#1296DB;enable-background:new    ;}
	.st3{fill:#1296DB;}
	.st4{opacity:0.1;fill:#1296DB;enable-background:new    ;}
	.st5{opacity:0.8;fill:#1296DB;enable-background:new    ;}
	.st6{opacity:0.2;fill:#1296DB;enable-background:new    ;}
	.st7{opacity:0.6;fill:#1296DB;enable-background:new    ;}
	.st8{opacity:0.3;fill:#1296DB;enable-background:new    ;}
	.st9{opacity:0.4;fill:#1296DB;enable-background:new    ;}
</style>
<path class="st0" d="M33.6,101.1L37,97l0.3,0.3l0.6,0.4l0.2,0.1c4,3,8.5,5.4,13.2,6.9l0.6,0.2l0.6,0.2c0.4,0.1,0.9,0.2,1.3,0.3
	l-1.3,5.2C45.6,108.9,39.1,105.7,33.6,101.1z"/>
<path class="st1" d="M25.7,82.9l0.3,0.6c2.3,4.4,5.3,8.4,8.9,11.8l0.1,0.1c0.1,0.1,0.3,0.3,0.4,0.4l0.4,0.3l0.4,0.4l-3.5,4.1
	c-5.4-4.6-9.7-10.4-12.7-16.9l4.9-2.2C25.2,81.9,25.5,82.4,25.7,82.9L25.7,82.9z"/>
<path class="st2" d="M16.1,61.7l5.3,0.2l0,0.3l0,0.3l0,0.7l0,0.2c0,0.4,0,0.8,0,1.2l0-0.7c0,0.3,0,0.5,0,0.8
	c0.1,5.4,1.2,10.7,3.3,15.7l-4.9,2.1C17.3,76.8,16,70.6,16,64C16,63.2,16,62.5,16.1,61.7z"/>
<path class="st3" d="M112,64c0,2.8-0.2,5.5-0.7,8.2l-5.3-0.9c0.2-1,0.3-2,0.4-3l0-0.5l0-0.4c0-0.3,0-0.6,0.1-0.8l0-0.5l0-0.7l0-0.3
	l0-0.4l0-0.6c0-0.3,0-0.6,0-0.8l0-0.5l0-0.4l0-0.4l0-0.7l0-0.3l0-0.4l0-0.3l0-0.4l-0.1-0.7l0-0.3l-0.1-0.4l0-0.3l-0.1-0.4
	c-0.3-1.8-0.6-3.5-1.1-5.2l5.1-1.4C111.4,55.3,112,59.6,112,64z"/>
<path class="st4" d="M22.2,40.4l4.6,2.6c-2.9,5.1-4.6,10.5-5.3,16.3l0,0.5l0,0.3l0,0.4l0,0.5l-5.3-0.4
	C16.6,53.5,18.7,46.6,22.2,40.4L22.2,40.4z"/>
<path class="st5" d="M109.9,50l-5.1,1.6c-0.2-0.6-0.4-1.1-0.6-1.7l-0.2-0.6l-0.1-0.3l-0.2-0.5l-0.1-0.2c-1.6-4.1-3.9-7.9-6.7-11.3
	l-0.3-0.3l-0.3-0.4l-0.4-0.5c-0.1-0.1-0.3-0.3-0.4-0.4l3.9-3.6c4.7,5.2,8.2,11.3,10.3,17.9L109.9,50z"/>
<path class="st6" d="M37.3,24.1l3,4.4l-0.4,0.3l-0.4,0.3l-0.2,0.1c-4.1,2.9-7.7,6.6-10.5,10.8l-0.1,0.2c-0.1,0.1-0.2,0.2-0.2,0.4
	L28.1,41c-0.3,0.4-0.5,0.8-0.7,1.2l-4.6-2.7C26.4,33.3,31.4,28.1,37.3,24.1L37.3,24.1z"/>
<path class="st7" d="M98.7,30.9l-3.9,3.7l-0.3-0.3l-0.5-0.5l-0.2-0.2c-3.2-3.2-7-5.8-11.1-7.8l-0.1,0c-0.2-0.1-0.4-0.2-0.6-0.3
	l-0.4-0.2c-0.8-0.4-1.7-0.7-2.5-1.1l1.9-5c6.5,2.5,12.4,6.4,17.3,11.4L98.7,30.9L98.7,30.9z"/>
<path class="st8" d="M58.1,16.3l0.7,5.3C52.4,22.4,46.4,24.6,41,28l-2.9-4.5C44.2,19.7,51,17.2,58.1,16.3z"/>
<path class="st9" d="M64,16c5.7,0,11.1,1,16.1,2.8l-1.8,5c-3.1-1.1-6.3-1.8-9.6-2.2l-0.6-0.1c-0.3,0-0.6-0.1-0.9-0.1l-0.5,0l-0.3,0
	l-0.4,0l-0.3,0l-0.4,0l-0.3,0l-0.5,0c-0.4,0-0.8,0-1.3,0l0.6,0c-0.3,0-0.7,0-1,0l-0.5,0l-0.4,0l-0.6,0l-0.5,0l-0.5,0l-0.6,0.1
	l-0.3,0l-0.5-5.3C60.8,16.1,62.4,16,64,16z"/>
<path class="st3" d="M70.7,63.3l11.5,11.5l-15,15h-5.3V72L50.4,83.6l-3.7-3.7l15.3-15.3V62L46.6,46.7l3.7-3.7l11.6,11.6V36.8h5.3
	l15,15L70.7,63.3L70.7,63.3z M67.2,67.3v15l7.5-7.5L67.2,67.3z M67.2,59.3l7.5-7.5l-7.5-7.5V59.3C67.2,59.3,67.2,59.3,67.2,59.3z"/>
</svg>
